<svg xmlns="http://www.w3.org/2000/svg" viewBox="0 0 200 200">
  <rect width="200" height="200" fill="#1e2b3a"/>
  <path d="M71.0249,146.3135a29.98,29.98,0,0,1-10.1335-22.9589,25.2733,25.2733,0,0,1,7.1246-18.0507A32.2134,32.2134,0,0,1,81.1584,97.388a27.84,27.84,0,0,1-9.6593-6.4919c-4.75-4.9083-6.4913-10.2921-6.4913-16.784,0-8.8669,3.3252-15.2,7.7593-19.6338C80.5244,46.5618,90.658,44.82,100.1588,44.82c9.1832,0,19.3168,1.7422,27.0741,9.6587,4.4341,4.4335,7.7587,10.7669,7.7587,19.6338,0,6.4919-1.7409,11.8757-6.4907,16.784a27.84,27.84,0,0,1-9.6593,6.4919,32.2134,32.2134,0,0,1,13.1424,7.9159,25.2733,25.2733,0,0,1,7.1246,18.0507,29.98,29.98,0,0,1-10.1335,22.9589c-9.3423,8.3914-19.1589,8.8669-29.1333,8.8669C90.3423,155.18,80.3672,154.7049,71.0249,146.3135Zm18.6834-35.3089a15.7342,15.7342,0,0,0-4.1171,10.4506,14.6856,14.6856,0,0,0,4.1171,10.6077,15.8364,15.8364,0,0,0,20.5834,0c2.3749-2.2164,4.1171-6.175,4.1171-10.7662a14.0128,14.0128,0,0,0-4.1171-10.2921c-2.5334-2.5334-6.4919-3.8-10.6084-3.8A14.2778,14.2778,0,0,0,89.7083,111.0046Zm.95-44.6512a12.2679,12.2679,0,0,0,0,18.0507A14.0853,14.0853,0,0,0,100,87.8872a12.8808,12.8808,0,0,0,9.1832-3.4831,11.67,11.67,0,0,0,3.9586-9.0253,12.36,12.36,0,0,0-3.9586-9.1832A14.0576,14.0576,0,0,0,100,62.87,13.5117,13.5117,0,0,0,90.658,66.3534Z" fill="#f26038"/>
</svg>
