<?xml version="1.0" encoding="UTF-8" standalone="no"?><!DOCTYPE svg PUBLIC "-//W3C//DTD SVG 1.1//EN" "http://www.w3.org/Graphics/SVG/1.1/DTD/svg11.dtd"><svg width="100%" height="100%" viewBox="0 0 3172 338" version="1.1" xmlns="http://www.w3.org/2000/svg" xmlns:xlink="http://www.w3.org/1999/xlink" xml:space="preserve" xmlns:serif="http://www.serif.com/" style="fill-rule:evenodd;clip-rule:evenodd;stroke-linejoin:round;stroke-miterlimit:2;"><g><g><path d="M83.158,331.997l92.787,0l0,-242.253l83.158,0l0,-73.529l-259.103,0l0,73.529l83.158,0l0,242.253Z" style="fill:#fff;fill-rule:nonzero;"/><path d="M211.071,331.997l97.601,0l62.806,-240.502l30.2,0l0,-75.28l-87.535,0l-103.072,315.782Zm64.776,-62.806l193.015,0l-19.258,-65.432l-154.499,0l-19.258,65.432Zm160.189,62.806l97.601,0l-103.072,-315.782l-57.335,0l0,75.28l62.806,240.502Z" style="fill:#fff;fill-rule:nonzero;"/><path d="M539.219,331.997l92.788,-0l0,-164.128l37.859,0l-60.618,-35.452l136.773,199.58l76.374,0l0,-315.782l-92.787,0l0,161.502l-37.859,0l60.837,35.452l-136.117,-196.954l-77.25,0l0,315.782Z" style="fill:#fff;fill-rule:nonzero;"/><path d="M970.66,337.686c29.032,0 53.834,-4.34 74.405,-13.021c20.571,-8.681 36.291,-21.008 47.159,-36.984c10.869,-15.975 16.303,-34.832 16.303,-56.569l0,-0.219c0,-17.069 -3.611,-31.622 -10.832,-43.658c-7.222,-12.036 -18.2,-21.92 -32.935,-29.652c-14.735,-7.732 -33.409,-13.641 -56.022,-17.726l-31.731,-5.69c-15.756,-2.918 -27.209,-6.31 -34.357,-10.176c-7.149,-3.866 -10.723,-9.374 -10.723,-16.522l0,-0.219c0,-4.814 1.459,-9.155 4.377,-13.021c2.918,-3.866 7.258,-6.93 13.021,-9.191c5.763,-2.261 12.875,-3.392 21.337,-3.392c8.462,0 16.012,1.167 22.65,3.501c6.638,2.334 11.963,5.58 15.975,9.738c4.012,4.158 6.31,9.155 6.893,14.99l0.219,2.188l85.347,0l-0.219,-4.814c-0.875,-19.695 -6.419,-36.801 -16.632,-51.317c-10.212,-14.516 -24.947,-25.713 -44.205,-33.592c-19.258,-7.878 -42.965,-11.817 -71.122,-11.817c-24.947,0 -47.196,4.231 -66.745,12.693c-19.549,8.462 -34.905,20.425 -46.065,35.889c-11.161,15.465 -16.741,33.774 -16.741,54.928l0,0.219c0,24.51 8.352,44.57 25.057,60.18c16.705,15.61 40.74,26.188 72.107,31.731l31.731,5.69c17.507,3.21 29.835,6.711 36.984,10.504c7.149,3.793 10.723,9.41 10.723,16.85l0,0.219c0,5.252 -1.824,9.921 -5.471,14.006c-3.647,4.085 -8.79,7.295 -15.428,9.629c-6.638,2.334 -14.626,3.501 -23.963,3.501c-8.753,0 -16.778,-1.204 -24.072,-3.611c-7.295,-2.407 -13.349,-5.726 -18.164,-9.957c-4.814,-4.231 -7.878,-9.191 -9.191,-14.881l-0.438,-1.97l-85.347,0l0.219,4.158c1.167,20.717 7.331,38.333 18.492,52.849c11.161,14.516 26.698,25.567 46.612,33.154c19.914,7.586 43.512,11.38 70.794,11.38l-0.002,0.002Z" style="fill:#fff;fill-rule:nonzero;"/><path d="M1182.606,331.997l92.787,0l0,-242.253l83.158,0l0,-73.529l-259.103,0l0,73.529l83.158,0l0,242.253Z" style="fill:#fff;fill-rule:nonzero;"/><path d="M1310.519,331.997l97.601,0l62.806,-240.502l30.2,0l0,-75.28l-87.535,0l-103.072,315.782Zm64.776,-62.806l193.015,0l-19.258,-65.432l-154.499,0l-19.258,65.432Zm160.189,62.806l97.601,0l-103.072,-315.782l-57.335,0l0,75.28l62.806,240.502Z" style="fill:#fff;fill-rule:nonzero;"/><path d="M1765.593,337.686c29.032,0 54.563,-5.763 76.593,-17.288c22.03,-11.525 39.281,-27.136 51.755,-46.831c12.474,-19.695 18.711,-41.871 18.711,-66.527l0,-2.407l-88.848,0l-0.219,2.407c-1.021,11.088 -4.085,20.753 -9.191,28.996c-5.106,8.243 -11.817,14.626 -20.133,19.148c-8.316,4.523 -17.799,6.784 -28.449,6.784c-12.693,0 -23.707,-3.428 -33.044,-10.285c-9.337,-6.857 -16.522,-16.887 -21.555,-30.09c-5.033,-13.203 -7.55,-29.142 -7.55,-47.816l0,-0.219c0,-18.528 2.517,-34.285 7.55,-47.269c5.033,-12.984 12.182,-22.905 21.446,-29.762c9.264,-6.857 20.242,-10.285 32.935,-10.285c11.525,0 21.41,2.371 29.652,7.112c8.243,4.741 14.735,11.234 19.477,19.477c4.741,8.243 7.55,17.616 8.425,28.121l0.219,2.626l88.848,0l0,-1.97c0,-24.802 -6.127,-47.087 -18.382,-66.855c-12.255,-19.768 -29.361,-35.415 -51.317,-46.941c-21.957,-11.525 -47.597,-17.288 -76.921,-17.288c-32.096,0 -59.852,6.383 -83.268,19.148c-23.416,12.766 -41.47,31.294 -54.162,55.585c-12.693,24.291 -19.039,53.798 -19.039,88.52l0,0.219c0,34.722 6.31,64.265 18.929,88.629c12.62,24.364 30.637,42.965 54.053,55.804c23.416,12.838 51.244,19.258 83.486,19.258l-0.001,-0.001Z" style="fill:#fff;fill-rule:nonzero;"/><path d="M2015.398,252.121l68.934,-92.787l23.853,0l106.136,-143.12l-97.383,0l-97.601,133.928l-3.939,0l0,101.979Zm-90.599,79.876l92.787,0l0,-315.782l-92.787,0l0,315.782Zm186.448,0l107.888,0l-128.239,-207.239l-67.84,58.648l88.191,148.591Z" style="fill:#fff;fill-rule:nonzero;"/></g><path d="M2392.017,7.268l130.811,0c34.237,-0 60.561,9.528 78.971,28.585c18.41,18.733 27.616,42.958 27.616,72.673c0,28.423 -8.559,50.871 -25.678,67.343c-11.951,11.305 -26.808,18.733 -44.573,22.286l101.257,132.264l-104.164,0l-80.425,-124.028l0,124.028l-83.816,0l0,-323.151Zm83.816,64.921l0,79.94l15.988,0c18.087,-0 31.653,-4.36 40.697,-13.081c7.106,-7.106 10.659,-16.149 10.659,-27.131c0,-11.305 -3.714,-20.348 -11.143,-27.131c-8.398,-8.398 -21.802,-12.597 -40.212,-12.597l-15.988,0Zm199.608,147.768l85.754,0c0.646,13.566 5.006,24.386 13.081,32.46c7.752,8.398 18.733,12.597 32.945,12.597c13.243,0 24.224,-4.683 32.945,-14.05c6.46,-7.429 9.69,-16.311 9.69,-26.647c0,-11.951 -4.199,-21.479 -12.597,-28.585c-7.429,-6.137 -17.764,-9.205 -31.007,-9.205c-5.491,0 -10.174,0.646 -14.05,1.938l0,-56.685c14.212,1.938 25.678,-0.807 34.398,-8.236c7.106,-6.137 10.659,-13.727 10.659,-22.771c0,-9.69 -2.907,-17.441 -8.721,-23.255c-5.814,-5.814 -13.727,-8.721 -23.74,-8.721c-10.013,0 -17.764,2.745 -23.255,8.236c-7.429,6.783 -11.143,16.311 -11.143,28.585l-78.002,0c1.615,-30.038 12.112,-54.747 31.492,-74.126c20.025,-20.994 48.448,-31.492 85.269,-31.492c34.237,0 61.045,9.528 80.425,28.585c17.441,17.441 26.162,38.274 26.162,62.499c0,14.858 -3.23,28.1 -9.69,39.728c-6.137,11.305 -14.373,19.541 -24.709,24.709c15.827,5.814 28.585,15.665 38.274,29.554c9.044,13.243 13.566,29.069 13.566,47.48c0,28.1 -9.528,51.678 -28.585,70.735c-22.932,22.932 -55.07,34.398 -96.413,34.398c-37.79,0 -68.635,-11.143 -92.537,-33.429c-23.578,-21.64 -36.982,-49.74 -40.212,-84.3Zm496.113,-212.689l0,71.219l-101.257,0l0,53.778l92.052,0l0,71.219l-92.052,0l0,126.935l-83.816,0l0,-323.151l185.073,0Z" style="fill:url(#_Linear1);stroke:#000;stroke-opacity:0;stroke-width:1px;"/></g><defs><linearGradient id="_Linear1" x1="0" y1="0" x2="1" y2="0" gradientUnits="userSpaceOnUse" gradientTransform="matrix(771.98305,319.895,-319.895,771.98305,2392.01695,10.524)"><stop offset="0" style="stop-color:#ff6345;stop-opacity:1"/><stop offset="1" style="stop-color:#e64e76;stop-opacity:1"/></linearGradient></defs></svg>