<?xml version="1.0" encoding="UTF-8" standalone="no"?><!DOCTYPE svg PUBLIC "-//W3C//DTD SVG 1.1//EN" "http://www.w3.org/Graphics/SVG/1.1/DTD/svg11.dtd"><svg width="100%" height="100%" viewBox="0 0 3069 313" version="1.1" xmlns="http://www.w3.org/2000/svg" xmlns:xlink="http://www.w3.org/1999/xlink" xml:space="preserve" xmlns:serif="http://www.serif.com/" style="fill-rule:evenodd;clip-rule:evenodd;stroke-linejoin:round;stroke-miterlimit:2;"><g><g id="TANSTACK"><path d="M0,70.736l0,-66.647l264.543,0l0,66.647l-90.975,0l0,237.966l-82.593,0l0,-237.966l-90.975,0Z" style="fill:#fff;fill-rule:nonzero;"/><path d="M225.822,308.702l98.744,-304.613l112.85,0l102.424,304.613l-93.633,0l-35.368,-118.165c-7.632,-25.623 -14.788,-52.234 -21.466,-79.833c-6.678,-27.599 -13.016,-55.028 -19.013,-82.286l18.808,0c-5.724,27.258 -11.517,54.687 -17.377,82.286c-5.861,27.599 -12.471,54.21 -19.831,79.833l-33.732,118.165l-92.406,0Zm73.189,-58.469l0,-61.74l167.639,0l0,61.74l-167.639,0Z" style="fill:#fff;fill-rule:nonzero;"/><path d="M547.935,308.702l0,-304.613l89.953,0l72.576,119.596c6.269,10.358 12.13,20.716 17.582,31.075c5.452,10.358 10.733,21.773 15.844,34.243c5.111,12.471 10.324,27.02 15.64,43.648l-7.155,0c-0.681,-11.04 -1.533,-23.817 -2.555,-38.332c-1.022,-14.515 -1.942,-28.826 -2.76,-42.932c-0.818,-14.106 -1.227,-25.998 -1.227,-35.674l0,-111.623l85.046,0l0,304.613l-89.953,0l-67.669,-111.214c-7.632,-12.675 -14.345,-24.499 -20.137,-35.47c-5.792,-10.972 -11.38,-22.59 -16.764,-34.857c-5.384,-12.266 -11.551,-26.441 -18.502,-42.523l8.586,0c1.09,14.311 2.147,28.553 3.169,42.728c1.022,14.174 1.84,27.327 2.453,39.457c0.613,12.13 0.92,22.352 0.92,30.666l0,111.214l-85.046,0Z" style="fill:#fff;fill-rule:nonzero;"/><path d="M973.085,312.382c-26.441,0 -49.508,-3.918 -69.202,-11.755c-19.694,-7.837 -34.993,-19.933 -45.896,-36.288c-10.903,-16.355 -16.423,-37.276 -16.559,-62.763l78.504,0c0.545,9.268 2.896,17.105 7.053,23.51c4.157,6.406 10.017,11.244 17.582,14.515c7.564,3.271 16.662,4.907 27.292,4.907c8.859,0 16.287,-1.09 22.284,-3.271c5.997,-2.181 10.529,-5.213 13.595,-9.097c3.067,-3.884 4.6,-8.348 4.6,-13.391c0,-4.634 -1.465,-8.689 -4.395,-12.164c-2.93,-3.475 -7.735,-6.644 -14.413,-9.506c-6.678,-2.862 -15.674,-5.452 -26.986,-7.769l-30.666,-6.542c-26.85,-5.724 -48.009,-15.503 -63.478,-29.337c-15.469,-13.834 -23.204,-32.676 -23.204,-56.527c0,-19.353 5.247,-36.288 15.742,-50.803c10.494,-14.515 24.976,-25.827 43.443,-33.937c18.468,-8.109 39.763,-12.164 63.887,-12.164c24.669,0 45.965,4.123 63.887,12.369c17.922,8.246 31.756,19.831 41.501,34.754c9.745,14.924 14.685,32.335 14.822,52.234l-79.322,0c-0.681,-9.949 -4.327,-17.684 -10.937,-23.204c-6.61,-5.52 -16.594,-8.28 -29.95,-8.28c-8.45,0 -15.401,0.988 -20.853,2.964c-5.452,1.976 -9.472,4.736 -12.062,8.28c-2.59,3.544 -3.884,7.564 -3.884,12.062c0,4.77 1.397,8.961 4.191,12.573c2.794,3.612 7.223,6.746 13.288,9.404c6.065,2.658 13.868,5.009 23.408,7.053l24.941,5.315c16.764,3.544 31.177,8.246 43.239,14.106c12.062,5.861 21.943,12.709 29.644,20.546c7.701,7.837 13.357,16.662 16.968,26.475c3.612,9.813 5.418,20.512 5.418,32.097c0,20.035 -4.941,37.037 -14.822,51.007c-9.881,13.97 -24.021,24.567 -42.421,31.79c-18.399,7.223 -40.479,10.835 -66.238,10.835Z" style="fill:#fff;fill-rule:nonzero;"/><path d="M1094.848,70.736l0,-66.647l264.543,0l0,66.647l-90.975,0l0,237.966l-82.593,0l0,-237.966l-90.975,0Z" style="fill:#fff;fill-rule:nonzero;"/><path d="M1320.67,308.702l98.744,-304.613l112.85,0l102.424,304.613l-93.633,0l-35.368,-118.165c-7.632,-25.623 -14.788,-52.234 -21.466,-79.833c-6.678,-27.599 -13.016,-55.028 -19.013,-82.286l18.808,0c-5.724,27.258 -11.517,54.687 -17.377,82.286c-5.861,27.599 -12.471,54.21 -19.831,79.833l-33.732,118.165l-92.406,0Zm73.189,-58.469l0,-61.74l167.639,0l0,61.74l-167.639,0Z" style="fill:#fff;fill-rule:nonzero;"/><path d="M1763.811,312.79c-27.804,0 -52.779,-5.997 -74.927,-17.991c-22.147,-11.994 -39.661,-29.609 -52.541,-52.847c-12.88,-23.238 -19.319,-51.689 -19.319,-85.353c0,-33.937 6.542,-62.558 19.626,-85.864c13.084,-23.306 30.734,-40.922 52.949,-52.847c22.216,-11.926 46.953,-17.888 74.211,-17.888c18.945,0 36.424,2.555 52.438,7.666c16.014,5.111 30.086,12.573 42.216,22.386c12.13,9.813 21.943,21.875 29.439,36.186c7.496,14.311 12.198,30.666 14.106,49.065l-83.82,0c-0.818,-6.542 -2.555,-12.471 -5.213,-17.786c-2.658,-5.315 -6.167,-9.881 -10.529,-13.697c-4.361,-3.816 -9.575,-6.746 -15.64,-8.791c-6.065,-2.044 -12.914,-3.067 -20.546,-3.067c-13.766,0 -25.453,3.373 -35.061,10.12c-9.609,6.746 -16.866,16.423 -21.773,29.03c-4.907,12.607 -7.36,27.77 -7.36,45.487c0,18.536 2.521,34.073 7.564,46.612c5.043,12.539 12.3,21.943 21.773,28.212c9.472,6.269 20.955,9.404 34.448,9.404c7.632,0 14.447,-1.022 20.444,-3.067c5.997,-2.044 11.244,-4.975 15.742,-8.791c4.498,-3.816 8.143,-8.382 10.937,-13.697c2.794,-5.315 4.668,-11.244 5.622,-17.786l83.82,0c-0.954,12.948 -4.532,26.168 -10.733,39.661c-6.201,13.493 -15.06,25.964 -26.577,37.412c-11.517,11.449 -25.691,20.682 -42.523,27.701c-16.832,7.019 -36.424,10.529 -58.776,10.529Z" style="fill:#fff;fill-rule:nonzero;"/><path d="M1977.162,255.343l0,-69.918c5.588,-12.811 11.04,-24.362 16.355,-34.652c5.315,-10.29 11.551,-20.75 18.706,-31.381c7.155,-10.631 16.117,-22.965 26.884,-37.003l60.514,-78.3l97.926,0l-127.365,156.804l-7.769,-3.271l-85.251,97.721Zm-62.763,53.358l0,-304.613l82.593,0l0,65.42l-1.636,87.704l1.636,40.274l0,111.214l-82.593,0Zm191.559,0l-73.393,-122.458l52.336,-60.514l118.37,182.972l-97.313,0Z" style="fill:#fff;fill-rule:nonzero;"/></g><g id="R3F"><path d="M2336.319,308.702l0,-304.613l131.249,0c22.624,0 42.421,4.123 59.389,12.369c16.968,8.246 30.189,20.103 39.661,35.572c9.472,15.469 14.208,33.971 14.208,55.505c0,21.807 -4.838,40.206 -14.515,55.198c-9.677,14.992 -23.238,26.304 -40.683,33.937c-17.445,7.632 -37.753,11.449 -60.923,11.449l-78.504,0l0,-64.194l61.74,0c9.813,0 18.195,-1.227 25.146,-3.68c6.951,-2.453 12.266,-6.338 15.946,-11.653c3.68,-5.315 5.52,-12.334 5.52,-21.057c0,-8.723 -1.84,-15.81 -5.52,-21.262c-3.68,-5.452 -8.995,-9.472 -15.946,-12.062c-6.951,-2.59 -15.333,-3.884 -25.146,-3.884l-29.03,0l0,238.375l-82.593,0Zm164.777,0l-74.415,-139.836l87.908,0l76.46,139.836l-89.953,0Z" style="fill:url(#_Linear1);fill-rule:nonzero;"/><path d="M2714.448,312.79c-23.987,0 -45.283,-4.123 -63.887,-12.369c-18.604,-8.246 -33.187,-19.66 -43.75,-34.243c-10.563,-14.583 -15.844,-31.347 -15.844,-50.292l83.002,0c0,5.861 1.772,11.074 5.315,15.64c3.544,4.566 8.45,8.143 14.72,10.733c6.269,2.59 13.357,3.884 21.262,3.884c7.632,0 14.345,-1.363 20.137,-4.089c5.792,-2.726 10.29,-6.474 13.493,-11.244c3.203,-4.77 4.804,-10.29 4.804,-16.559c0,-6.269 -1.874,-11.755 -5.622,-16.457c-3.748,-4.702 -8.995,-8.382 -15.742,-11.04c-6.746,-2.658 -14.617,-3.987 -23.613,-3.987l-31.075,0l0,-57.243l31.075,0c8.178,0 15.401,-1.363 21.67,-4.089c6.269,-2.726 11.176,-6.44 14.72,-11.142c3.544,-4.702 5.315,-10.12 5.315,-16.253c0,-5.997 -1.499,-11.244 -4.498,-15.742c-2.998,-4.498 -7.121,-8.041 -12.369,-10.631c-5.247,-2.59 -11.346,-3.884 -18.297,-3.884c-7.632,0 -14.413,1.329 -20.342,3.987c-5.929,2.658 -10.563,6.338 -13.902,11.04c-3.339,4.702 -5.009,10.188 -5.009,16.457l-79.322,0c0,-18.672 5.077,-35.163 15.231,-49.474c10.154,-14.311 24.158,-25.521 42.012,-33.63c17.854,-8.109 38.298,-12.164 61.331,-12.164c22.488,0 42.387,3.816 59.696,11.449c17.309,7.632 30.836,18.127 40.581,31.483c9.745,13.357 14.617,28.621 14.617,45.794c0,16.9 -5.895,30.836 -17.684,41.808c-11.789,10.972 -26.747,17.479 -44.874,19.524l0,2.044c16.355,1.772 29.984,5.758 40.888,11.96c10.903,6.201 19.081,14.174 24.533,23.919c5.452,9.745 8.178,20.819 8.178,33.221c0,17.854 -5.384,33.698 -16.151,47.532c-10.767,13.834 -25.657,24.635 -44.67,32.403c-19.013,7.769 -40.99,11.653 -65.931,11.653Z" style="fill:url(#_Linear2);fill-rule:nonzero;"/><path d="M2854.202,308.702l0,-304.613l214.251,0l0,66.647l-131.658,0l0,68.691l118.574,0l0,65.011l-118.574,0l0,104.263l-82.593,0Z" style="fill:url(#_Linear3);fill-rule:nonzero;"/></g></g><defs><linearGradient id="_Linear1" x1="0" y1="0" x2="1" y2="0" gradientUnits="userSpaceOnUse" gradientTransform="matrix(1403.062579,509,-217.460628,599.431963,1902.419709,-148.018043)"><stop offset="0" style="stop-color:#ff6345;stop-opacity:1"/><stop offset="1" style="stop-color:#e64e76;stop-opacity:1"/></linearGradient><linearGradient id="_Linear2" x1="0" y1="0" x2="1" y2="0" gradientUnits="userSpaceOnUse" gradientTransform="matrix(1403.062579,509,-217.460628,599.431963,1902.419709,-148.018043)"><stop offset="0" style="stop-color:#ff6345;stop-opacity:1"/><stop offset="1" style="stop-color:#e64e76;stop-opacity:1"/></linearGradient><linearGradient id="_Linear3" x1="0" y1="0" x2="1" y2="0" gradientUnits="userSpaceOnUse" gradientTransform="matrix(1403.062579,509,-217.460628,599.431963,1902.419709,-148.018043)"><stop offset="0" style="stop-color:#ff6345;stop-opacity:1"/><stop offset="1" style="stop-color:#e64e76;stop-opacity:1"/></linearGradient></defs></svg>